HIERARCHY
ROOT Hips
{
  OFFSET 0 0 0
  CHANNELS 6 Xposition Yposition Zposition Zrotation Xrotation Yrotation
  JOINT Spine
  {
    OFFSET 0 8.08348 0
    CHANNELS 3 Zrotation Xrotation Yrotation
    JOINT Spine1
    {
      OFFSET 0 24.6145 0
      CHANNELS 3 Zrotation Xrotation Yrotation
      JOINT Neck
      {
        OFFSET 0 24.5134 2.22849
        CHANNELS 3 Zrotation Xrotation Yrotation
        JOINT Head
        {
          OFFSET 0 13.8011 -1.97158
          CHANNELS 3 Zrotation Xrotation Yrotation
          End Site
          {
            OFFSET 0 19.7158 0
          }
        }
      }
      JOINT LeftShoulder
      {
        OFFSET 3.94856 23.7669 -0.001842
        CHANNELS 3 Zrotation Xrotation Yrotation
        JOINT LeftArm
        {
          OFFSET 8.44442 0 0
          CHANNELS 3 Zrotation Xrotation Yrotation
          JOINT LeftForeArm
          {
            OFFSET 36.6799 0 0
            CHANNELS 3 Zrotation Xrotation Yrotation
            JOINT LeftHand
            {
              OFFSET 28.1618 0 0
              CHANNELS 3 Zrotation Xrotation Yrotation
              End Site
              {
                OFFSET 14.7869 0 0
              }
            }
          }
        }
      }
      JOINT RightShoulder
      {
        OFFSET -3.93736 23.7669 -0.001842
        CHANNELS 3 Zrotation Xrotation Yrotation
        JOINT RightArm
        {
          OFFSET -8.44442 0 0
          CHANNELS 3 Zrotation Xrotation Yrotation
          JOINT RightForeArm
          {
            OFFSET -36.6799 0 0
            CHANNELS 3 Zrotation Xrotation Yrotation
            JOINT RightHand
            {
              OFFSET -28.1618 0 0
              CHANNELS 3 Zrotation Xrotation Yrotation
              End Site
              {
                OFFSET -14.7869 0 0
              }
            }
          }
        }
      }
    }
  }
  JOINT LeftUpLeg
  {
    OFFSET 9.8579 0 0
    CHANNELS 3 Zrotation Xrotation Yrotation
    JOINT LeftLeg
    {
      OFFSET 0 -43.507 0
      CHANNELS 3 Zrotation Xrotation Yrotation
      JOINT LeftFoot
      {
        OFFSET 0 -37.4368 0
        CHANNELS 3 Zrotation Xrotation Yrotation
        JOINT LeftToeBase
        {
          OFFSET 0 -6.40764 14.7869
          CHANNELS 3 Zrotation Xrotation Yrotation
          End Site
          {
            OFFSET 0 0 3.94316
          }
        }
      }
    }
  }
  JOINT RightUpLeg
  {
    OFFSET -9.8579 0 0
    CHANNELS 3 Zrotation Xrotation Yrotation
    JOINT RightLeg
    {
      OFFSET 0 -43.507 0
      CHANNELS 3 Zrotation Xrotation Yrotation
      JOINT RightFoot
      {
        OFFSET 0 -37.4368 0
        CHANNELS 3 Zrotation Xrotation Yrotation
        JOINT RightToeBase
        {
          OFFSET 0 -6.40764 14.7869
          CHANNELS 3 Zrotation Xrotation Yrotation
          End Site
          {
            OFFSET 0 0 3.94316
          }
        }
      }
    }
  }
}
MOTION
Frames:	13
Frame Time:	0.0166667
30.218 94.1402 -209.973 -4.73006 -2.99286 -47.1658 0.339686 3.40378 -1.87601 -0.913162 8.4163 -0.555439 1.79778 26.7016 -9.62215 14.3772 -26.0279 -4.61458 4.97033 3.58197 -5.16685 -50.7058 11.1797 -12.6268 -26.315 -42.1802 -94.9857 24.6385 -59.2098 11.8076 -2.25276 6.65218 5.14877 50.224 -3.07755 2.59495 30.4629 -37.7115 84.8142 -7.0797 -57.0296 -1.85376 -0.135158 6.20792 7.48209 -3.46507 14.6182 0.613878 6.9304 -14.7118 16.8119 1.49089e-016 -9.93923e-017 -0 -0.908356 2.78393 9.18992 2.32025 17.7637 23.3041 -6.64157 -11.8142 -32.1333 2.20695e-031 9.93923e-016 -1.27222e-014 
30.4472 94.1216 -210.171 -4.70608 -2.8838 -47.3534 0.285113 3.83132 -1.77053 -0.771969 8.47893 -0.530148 1.73837 26.6874 -9.59009 14.4858 -26.8123 -4.45095 4.65445 3.63074 -5.6796 -50.667 12.6986 -13.0294 -24.3335 -42.3155 -100.292 24.886 -59.5019 11.7087 -1.69997 6.80422 5.59075 50.4569 -2.77013 2.94667 28.9172 -37.7049 89.752 -8.14189 -57.5506 -1.77806 -0.045433 5.51398 7.73725 -3.42841 15.5179 0.344349 7.13203 -14.8914 17.0673 1.98785e-016 -9.93923e-017 -3.18055e-015 -0.885287 2.2176 9.20495 2.40232 18.2585 23.5469 -6.65424 -11.7991 -32.2249 -1.98785e-016 -5.96354e-016 1.27222e-014 
30.689 94.0922 -210.398 -4.68341 -2.75265 -47.5693 0.28956 4.31149 -1.73101 -0.722897 8.45079 -0.520237 1.53244 26.8648 -9.46886 14.7747 -27.7992 -4.11074 4.34569 3.66658 -6.10305 -50.87 13.7128 -13.4943 -22.897 -41.4219 -106.217 25.6021 -59.5846 11.6189 -1.05139 7.00629 6.00748 50.6623 -2.4766 3.82971 26.9141 -38.0142 94.2609 -7.81897 -57.8549 -1.12559 0.109281 4.70205 7.93609 -3.42404 16.6435 0.114494 7.01724 -15.1777 17.1787 -1.09332e-015 0 -3.18055e-015 -0.791344 1.60124 9.16491 2.37801 18.7845 23.6799 -6.61273 -11.8066 -32.1349 -1.98785e-016 -1.98785e-016 -0 
30.9551 94.0576 -210.641 -4.7371 -2.64101 -47.6975 0.31707 4.94308 -1.73051 -0.61707 8.27636 -0.527754 1.38492 27.1995 -9.41243 14.8955 -28.7459 -3.89591 3.89803 3.74617 -6.58314 -50.6697 14.5491 -14.7485 -20.8676 -40.3725 -111.12 26.8993 -58.6613 12.0881 -0.496946 7.11335 6.52432 50.9363 -2.52816 4.79556 25.9336 -37.6261 99.3099 -10.4073 -58.3532 -3.08875 0.305377 3.92994 7.97676 -3.533 17.7255 0.155839 7.26014 -15.4147 17.4209 -3.97569e-016 9.93923e-017 -3.18055e-015 -0.645261 1.02225 9.03668 2.33759 19.3512 23.8415 -6.56042 -11.7893 -32.082 3.97569e-016 0 3.18055e-015 
31.2349 94.0071 -210.898 -4.84337 -2.53978 -47.8294 0.450863 5.70547 -1.76713 -0.644326 8.04372 -0.536095 1.24019 27.3697 -9.31247 14.9236 -29.3966 -3.71095 3.4792 3.84111 -6.86448 -50.2789 15.5914 -16.5174 -18.7247 -39.2055 -115.529 28.2502 -57.2399 12.6213 0.189491 7.25044 6.97662 51.0875 -2.61714 6.10932 24.8752 -36.8352 104.008 -12.1702 -58.4625 -4.46027 0.521931 3.17617 8.12251 -3.62192 18.8181 0.137099 7.36308 -15.7204 17.6728 -8.44835e-016 -3.97569e-016 -3.18055e-015 -0.404354 0.412189 8.72397 2.12365 20.0613 24.039 -6.44516 -11.827 -31.9131 4.41391e-032 -3.97569e-016 6.36111e-015 
31.5623 93.9431 -211.175 -4.9595 -2.46513 -47.9243 0.545779 6.59015 -1.75873 -0.548459 7.67159 -0.536998 1.15678 27.7502 -9.26095 14.7101 -30.2628 -3.63684 3.05201 3.89888 -7.31184 -49.7332 16.754 -18.7166 -16.9939 -37.8421 -119.372 29.1143 -55.7902 12.8248 0.677083 7.40354 7.57456 51.3699 -2.76591 7.39131 23.9459 -35.7545 108.688 -15.4634 -58.3802 -6.98877 0.756938 2.36155 8.20368 -3.74868 20.0422 0.208266 7.53831 -15.9936 17.7529 -4.96962e-017 9.93923e-017 3.18055e-015 -0.236576 -0.327477 8.54149 2.05709 21.0545 24.5416 -6.45891 -11.9221 -32.1479 -0 0 1.59028e-014 
31.9369 93.8588 -211.49 -4.97104 -2.34654 -48.0738 0.628391 7.46657 -1.69517 -0.469186 7.29282 -0.520923 1.01355 28.0296 -9.17129 14.5042 -31.2922 -3.51113 2.62316 3.98074 -7.7601 -48.6671 18.5684 -21.3518 -16.1096 -36.7986 -123.177 31.4468 -55.0437 14.4617 1.02873 7.5056 8.10643 51.8492 -2.55264 8.67917 23.3128 -34.5053 113.478 -16.9712 -58.6854 -8.22456 1.00415 1.34502 8.41243 -3.92352 21.4002 0.265807 7.60312 -16.2247 17.7337 -1.73937e-016 -2.98177e-016 -3.18055e-015 -0.124677 -1.36709 8.38865 2.03689 22.3733 25.3192 -6.6437 -12.0344 -32.6032 4.41391e-032 3.97569e-016 -6.36111e-015 
32.3583 93.7476 -211.842 -4.90841 -2.21927 -48.2546 0.6488 8.3488 -1.59931 -0.31581 6.99067 -0.497415 0.795523 28.0502 -9.13375 14.2769 -32.2452 -3.47323 2.24277 3.92618 -8.37247 -47.8199 19.9915 -23.9174 -16.2123 -35.1704 -126.714 32.8375 -55.1757 15.542 1.33695 7.76776 8.47068 52.1253 -1.94057 10.3848 22.1824 -33.7846 117.717 -19.0936 -58.6661 -9.84709 1.24914 0.181439 8.71424 -4.14998 22.8848 0.24706 7.79851 -16.4953 17.8382 3.47873e-016 -1.49089e-016 -3.18055e-015 -0.095787 -2.58107 8.05705 2.10061 23.9541 26.2746 -7.19513 -12.2119 -33.2789 7.95139e-016 -3.97569e-016 -0 
32.8006 93.6021 -212.241 -4.72246 -1.9939 -48.5099 0.63726 9.10886 -1.4567 -0.21248 6.70986 -0.455306 0.626788 27.8908 -9.0874 14.0385 -32.9421 -3.4609 1.8522 4.04334 -9.07909 -46.4132 21.8573 -26.6724 -15.8402 -35.264 -129.337 33.7245 -55.7043 16.5092 1.58181 7.98347 8.93086 52.2188 -1.20031 12.1821 20.5021 -33.748 121.012 -18.8262 -58.3183 -10.1002 1.56552 -1.23767 9.29195 -4.37557 24.5796 -0.127736 8.0434 -16.7815 18.0959 1.61513e-016 -1.73937e-016 -0 -0.070745 -4.1921 7.5661 2.09291 25.8932 27.0223 -7.69516 -12.4631 -33.4223 -3.97569e-016 -3.97569e-016 -6.36111e-015 
33.2772 93.4202 -212.655 -4.45715 -1.74244 -48.7191 0.643603 9.87115 -1.43236 -0.235998 6.35381 -0.437934 0.673279 27.6079 -9.03548 13.5634 -33.3874 -3.55285 1.52246 4.15031 -9.68886 -45.245 23.0132 -29.1989 -15.1173 -35.5615 -130.718 34.3365 -55.4575 16.909 1.9341 8.28197 9.46325 52.0018 -0.164482 14.0712 18.4469 -34.6842 123.33 -19.0792 -57.5585 -11.1833 1.85025 -2.80043 9.80055 -4.57917 26.3558 -0.418657 8.41334 -17.0818 18.356 6.21202e-016 -9.93923e-017 -0 -0.081265 -6.04216 7.16281 2.17249 28.1184 27.4366 -8.08788 -12.8702 -33.6634 3.97569e-016 -7.95139e-016 6.36111e-015 
33.7516 93.1764 -213.067 -4.16587 -1.52364 -49.0003 0.659929 10.6115 -1.44377 -0.332539 6.02286 -0.435542 0.548271 27.395 -8.83853 13.2488 -33.957 -3.43188 1.29516 4.19503 -10.273 -44.3445 23.6958 -31.2557 -14.6851 -36.3712 -131.228 35.3145 -55.4729 17.4782 2.16515 8.5953 9.87856 51.7251 0.997404 16.0972 17.3629 -35.3846 124.846 -18.9492 -57.3738 -11.8266 2.11883 -4.38348 10.3904 -4.85494 28.2886 -0.6025 8.62756 -17.5666 18.4867 5.0628e-016 -2.85753e-016 6.36111e-015 -0.175529 -8.01548 6.56788 2.2323 30.6325 28.0358 -8.20649 -13.7361 -34.3593 -7.95139e-016 -7.95139e-016 9.54166e-015 
34.247 92.8742 -213.471 -3.89893 -1.41469 -49.2483 0.686168 11.4436 -1.56608 -0.447269 5.67729 -0.475603 0.151612 27.3019 -8.61116 13.2655 -34.4647 -3.17269 1.0249 4.14875 -10.7933 -43.675 23.9565 -32.6637 -14.3023 -37.5628 -130.484 34.2679 -55.7138 16.6125 2.20317 8.87081 10.126 51.326 2.18188 18.2677 17.8316 -35.2331 125.608 -20.4458 -57.9507 -12.9501 2.35994 -5.98962 10.6796 -5.29227 30.3584 -0.939183 9.00126 -18.0095 19.1901 -4.5969e-016 -3.97569e-016 -3.18055e-015 -0.369981 -9.93612 5.82957 2.27811 33.3109 28.2758 -9.3774 -14.2299 -35.2232 7.95139e-016 -7.95139e-016 -3.18055e-015 
34.7234 92.523 -213.843 -3.67857 -1.45442 -49.4768 0.62482 12.2875 -1.64888 -0.619056 5.33981 -0.49624 -0.133109 27.6312 -8.43409 13.5328 -35.2455 -2.81083 0.776248 4.34839 -11.4727 -42.8454 23.7371 -33.858 -14.8317 -38.5189 -129.276 35.5569 -56.2748 17.5796 2.10451 8.87306 10.4716 50.8005 3.38499 19.9063 18.9024 -34.8582 125.409 -25.3751 -58.1561 -16.3072 2.56974 -7.42366 10.554 -6.09194 32.363 -0.395483 9.35996 -18.4708 19.4971 -4.22417e-016 1.98785e-016 3.18055e-015 -0.810824 -11.6238 4.97701 2.47599 35.6379 28.3185 -9.78764 -14.4163 -36.0597 3.97569e-016 0 6.36111e-015 
